<svg width="406" height="94" viewBox="0 0 406 94" fill="none" xmlns="http://www.w3.org/2000/svg">
<g filter="url(#filter0_d)">
<path d="M199 38.0001C210.913 38.0001 221.257 31.28 226.447 21.4239C230.307 14.0938 236.716 7.00006 245 7.00006H361C377.569 7.00006 391 20.4315 391 37.0001V49.0001C391 65.5686 377.569 79.0001 361 79.0001H37C20.4315 79.0001 7 65.5686 7 49.0001V37.0001C7 20.4315 20.4315 7.00006 37 7.00006H153C161.284 7.00006 167.693 14.0938 171.553 21.4239C176.743 31.28 187.087 38.0001 199 38.0001Z" fill="white"/>
</g>
<defs>
<filter id="filter0_d" x="0" y="6.10352e-05" width="406" height="94" filterUnits="userSpaceOnUse" color-interpolation-filters="sRGB">
<feFlood flood-opacity="0" result="BackgroundImageFix"/>
<feColorMatrix in="SourceAlpha" type="matrix" values="0 0 0 0 0 0 0 0 0 0 0 0 0 0 0 0 0 0 127 0"/>
<feOffset dx="4" dy="4"/>
<feGaussianBlur stdDeviation="5.5"/>
<feColorMatrix type="matrix" values="0 0 0 0 0 0 0 0 0 0 0 0 0 0 0 0 0 0 0.1 0"/>
<feBlend mode="normal" in2="BackgroundImageFix" result="effect1_dropShadow"/>
<feBlend mode="normal" in="SourceGraphic" in2="effect1_dropShadow" result="shape"/>
</filter>
</defs>
</svg>
