<svg width="362" height="81" viewBox="0 0 362 81" fill="none" xmlns="http://www.w3.org/2000/svg">
<g filter="url(#filter0_d)">
<path d="M177 32.6083C186.522 32.6083 194.912 28.1479 199.835 21.3747C204.705 14.6733 211.164 7.36087 219.448 7.36087H320.438C335.108 7.36087 347 18.2999 347 31.7939V41.5671C347 55.061 335.108 66.0001 320.438 66.0001H33.5625C18.8924 66.0001 7 55.061 7 41.5671V31.7939C7 18.2999 18.8924 7.36087 33.5625 7.36087H134.552C142.836 7.36087 149.295 14.6733 154.165 21.3747C159.088 28.1479 167.478 32.6083 177 32.6083Z" fill="white"/>
</g>
<defs>
<filter id="filter0_d" x="0" y="0.36087" width="362" height="80.6392" filterUnits="userSpaceOnUse" color-interpolation-filters="sRGB">
<feFlood flood-opacity="0" result="BackgroundImageFix"/>
<feColorMatrix in="SourceAlpha" type="matrix" values="0 0 0 0 0 0 0 0 0 0 0 0 0 0 0 0 0 0 127 0"/>
<feOffset dx="4" dy="4"/>
<feGaussianBlur stdDeviation="5.5"/>
<feColorMatrix type="matrix" values="0 0 0 0 0 0 0 0 0 0 0 0 0 0 0 0 0 0 0.1 0"/>
<feBlend mode="normal" in2="BackgroundImageFix" result="effect1_dropShadow"/>
<feBlend mode="normal" in="SourceGraphic" in2="effect1_dropShadow" result="shape"/>
</filter>
</defs>
</svg>
